<svg xmlns="http://www.w3.org/2000/svg" viewBox="0 0 128 128" role="img" aria-labelledby="title">
  <title id="title">Rethorium Farm favicon</title>
  <circle cx="64" cy="64" r="58" fill="#f6f7f0"/>
  <circle cx="64" cy="64" r="57" fill="none" stroke="#d8e7d3" stroke-width="2"/>
  <g transform="translate(12 11) scale(.203125)">
    <path d="M256 176v178" fill="none" stroke="#2a6928" stroke-linecap="round" stroke-width="14"/>
    <path d="M244 207C166 202 117 149 123 71c73 8 128 63 121 136Z" fill="#7fc344"/>
    <path d="M256 169c-44-29-61-82-34-139 45 29 62 82 34 139Z" fill="#2f7d32"/>
    <path d="M268 207c78-5 127-58 121-136-73 8-128 63-121 136Z" fill="#7fc344"/>
    <path d="M229 300c-77 19-145-12-174-72 71-29 146 4 174 72Z" fill="#68b53f"/>
    <path d="M283 300c77 19 145-12 174-72-71-29-146 4-174 72Z" fill="#68b53f"/>
    <path d="M149 315c19-17 40-28 62-33 13 12 28 20 45 25 17 5 34 7 51 7s34-2 51-7c17-5 32-13 45-25 22 5 43 16 62 33l-17 64-51-13-29 39h-122l-29-39-51 13-17-64Z" fill="#1f5d2b"/>
    <path d="M214 211c-17-26-42-44-74-54" fill="none" stroke="#edf8dd" stroke-linecap="round" stroke-width="7"/>
    <path d="M298 211c17-26 42-44 74-54" fill="none" stroke="#edf8dd" stroke-linecap="round" stroke-width="7"/>
    <path d="M256 71c-2 33 4 60 18 85" fill="none" stroke="#dff0ca" stroke-linecap="round" stroke-width="7"/>
    <path d="M206 266c-24-20-54-30-89-30" fill="none" stroke="#edf8dd" stroke-linecap="round" stroke-width="7"/>
    <path d="M306 266c24-20 54-30 89-30" fill="none" stroke="#edf8dd" stroke-linecap="round" stroke-width="7"/>
  </g>
</svg>